<?xml version="1.0" standalone="no"?><!DOCTYPE svg PUBLIC "-//W3C//DTD SVG 1.1//EN" "http://www.w3.org/Graphics/SVG/1.1/DTD/svg11.dtd"><svg t="1564111319195" class="icon" viewBox="0 0 1024 1024" version="1.1" xmlns="http://www.w3.org/2000/svg" p-id="4842" xmlns:xlink="http://www.w3.org/1999/xlink" width="200" height="200"><defs><style type="text/css"></style></defs><path d="M455.714747 917.653206 183.338922 917.653206c-42.462275 0-76.992128-35.073533-76.992128-78.569006L106.346794 184.9158c0-43.451529 34.554379-78.569006 76.938986-78.569006l433.618012 0c42.414244 0 76.938986 35.110323 76.938986 78.600687l0 203.999808c0 11.58796 9.39382 20.98178 20.98178 20.98178 11.58796 0 20.98178-9.39382 20.98178-20.98178L735.806339 184.947481C735.808383 118.437557 682.654403 64.383234 616.904814 64.383234L183.286802 64.383234C117.57196 64.383234 64.383234 118.439601 64.383234 184.9158l0 654.167377C64.383234 905.609453 117.551521 959.616766 183.338922 959.616766l272.374802 0c11.58796 0 20.98178-9.39382 20.98178-20.98178C476.696527 927.047026 467.302707 917.653206 455.714747 917.653206z" p-id="4843" fill="#C1AB96"></path><path d="M595.928144 232.239521l-391.664671 0c-11.58796 0-20.98178 9.39382-20.98178 20.98178 0 11.58796 9.39382 20.98178 20.98178 20.98178l391.664671 0c11.58796 0 20.98178-9.39382 20.98178-20.98178C616.909924 241.633341 607.516104 232.239521 595.928144 232.239521z" p-id="4844" fill="#C1AB96"></path><path d="M616.909924 407.090076c0-11.58796-9.39382-20.98178-20.98178-20.98178l-391.664671 0c-11.58796 0-20.98178 9.39382-20.98178 20.98178 0 11.58796 9.39382 20.98178 20.98178 20.98178l391.664671 0C607.516104 428.071856 616.909924 418.678036 616.909924 407.090076z" p-id="4845" fill="#C1AB96"></path><path d="M204.263473 539.976048c-11.58796 0-20.98178 9.39382-20.98178 20.98178 0 11.58796 9.39382 20.98178 20.98178 20.98178l223.808383 0c11.58796 0 20.98178-9.39382 20.98178-20.98178 0-11.58796-9.39382-20.98178-20.98178-20.98178L204.263473 539.976048z" p-id="4846" fill="#C1AB96"></path><path d="M714.826603 470.036439c-135.193549 0-244.790164 109.596615-244.790164 244.790164S579.632032 959.616766 714.826603 959.616766 959.616766 850.020152 959.616766 714.826603 850.020152 470.036439 714.826603 470.036439zM793.180998 772.694866c-3.715832 7.048431-9.17921 13.214914-16.392176 18.501493s-16.119313 9.505214-26.719042 12.65897c-3.574802 1.062834-7.328447 1.946826-11.264 2.651976l0 20.224511-47.958355 0 0-19.935297c-6.64578-1.038307-13.350834-2.528319-20.116184-4.471058-14.534259-4.172647-27.811513-10.711122-39.832782-19.614403l32.128255-32.829317c8.086739 5.193581 16.665038 9.413238 25.73592 12.65897 9.06986 3.245733 17.758531 4.868599 26.063968 4.868599 9.835305 0 16.665038-1.11291 20.49022-3.338731 3.825182-2.22582 5.737261-5.378555 5.737261-9.459226 0-2.22582-0.656096-4.080671-1.967265-5.564551-1.31117-1.48388-3.278435-2.874762-5.900774-4.173669-2.622339-1.297884-5.846611-2.54978-9.671792-3.755689-3.825182-1.205908-8.250251-2.550802-13.277253-4.033661l-26.555529-9.459226c-6.119473-1.85485-11.91192-4.312655-17.376319-7.372391-5.464399-3.060758-10.217517-6.677461-14.261397-10.850108-4.04388-4.173669-7.26713-8.949269-9.671792-14.327824-2.404663-5.378555-3.606483-11.314076-3.606483-17.805541 0-7.790371 1.967265-15.069764 5.900774-21.839202 3.934531-6.769437 9.453094-12.704958 16.555689-17.805541 7.103617-5.100583 15.627752-9.134244 25.571385-12.102004 1.329565-0.396519 2.680591-0.767489 4.051034-1.110866l0-21.486627 47.958355 0 0 19.564327c6.432192 0.973924 12.864383 2.448607 19.296575 4.42507 12.676343 3.894675 24.260216 10.01517 34.751617 18.362507l-28.194747 30.046531c-7.649341-4.265645-14.862307-7.511377-21.637876-9.737198-6.775569-2.22582-14.42491-3.338731-22.949046-3.338731-16.173477 0-24.260216 4.080671-24.260216 12.24099 0 4.265645 2.896224 7.511377 8.687649 9.737198 5.791425 2.22582 14.042699 5.007585 24.751776 8.346315l24.588263 8.624287c14.42491 4.451641 25.517222 10.665134 33.275912 18.640479 7.758691 7.975345 11.638036 18.269509 11.638036 30.881469C798.754747 758.320032 796.89683 765.646435 793.180998 772.694866zM910.658938 732.31125c-5.794491 0-10.491401-4.69691-10.491401-10.491401 0-106.22416-86.111042-192.335202-192.335202-192.335202-5.793469 0-10.491401-4.69691-10.491401-10.491401 0-5.794491 4.69691-10.491401 10.491401-10.491401 117.81212 0 213.316982 95.505884 213.316982 213.316982C921.149317 727.614339 916.452407 732.31125 910.658938 732.31125z" p-id="4847" fill="#C1AB96"></path></svg>