<?xml version="1.0" standalone="no"?><!DOCTYPE svg PUBLIC "-//W3C//DTD SVG 1.1//EN" "http://www.w3.org/Graphics/SVG/1.1/DTD/svg11.dtd"><svg t="1564111416630" class="icon" viewBox="0 0 1024 1024" version="1.1" xmlns="http://www.w3.org/2000/svg" p-id="5936" xmlns:xlink="http://www.w3.org/1999/xlink" width="200" height="200"><defs><style type="text/css"></style></defs><path d="M366.933333 516.266667l-38.4-38.4 29.866667-29.866667 89.6 89.6-89.6 89.6-29.866667-29.866667 38.4-38.4H170.666667v-42.666666h196.266666zM832 384l106.666667 106.666667V768h-89.6c-8.533333 25.6-34.133333 42.666667-59.733334 42.666667s-51.2-17.066667-59.733333-42.666667H379.733333c-8.533333 25.6-34.133333 42.666667-59.733333 42.666667s-51.2-17.066667-59.733333-42.666667H170.666667v-170.666667h42.666666v128h512V298.666667H213.333333v170.666666H170.666667V256h597.333333v128h64zM768 426.666667v298.666666h128v-213.333333l-85.333333-85.333333h-42.666667z" fill="#C1AB96" p-id="5937"></path></svg>